# 3ds Max Wavefront OBJ Exporter v0.97b - (c)2007 guruware
# File Created: 05.03.2015 18:35:42

mtllib table_OBJ.mtl

#
# object Box001
#

v  0.5978 1.3098 0.5978
v  -0.5978 1.3098 0.5978
v  -0.5978 1.3098 -0.5978
v  0.5978 1.3098 -0.5978
v  -0.7559 1.3935 0.7559
v  0.7559 1.3935 0.7559
v  0.7559 1.3935 -0.7559
v  -0.7559 1.3935 -0.7559
v  -0.7559 1.3427 0.7620
v  0.7559 1.3427 0.7620
v  0.7559 1.3874 0.7620
v  -0.7559 1.3874 0.7620
v  0.7620 1.3427 0.7559
v  0.7620 1.3427 -0.7559
v  0.7620 1.3874 -0.7559
v  0.7620 1.3874 0.7559
v  0.7559 1.3427 -0.7620
v  -0.7559 1.3427 -0.7620
v  -0.7559 1.3874 -0.7620
v  0.7559 1.3874 -0.7620
v  -0.7620 1.3427 -0.7559
v  -0.7620 1.3427 0.7559
v  -0.7620 1.3874 0.7559
v  -0.7620 1.3874 -0.7559
v  -0.7577 1.3427 -0.7577
v  -0.7116 1.3427 -0.7056
v  -0.7160 1.3427 -0.7160
v  -0.7116 1.3427 0.7056
v  -0.7160 1.3427 0.7160
v  -0.7577 1.3427 0.7577
v  0.7577 1.3427 -0.7577
v  0.7056 1.3427 -0.7116
v  0.7160 1.3427 -0.7160
v  -0.7056 1.3427 -0.7116
v  0.7577 1.3427 0.7577
v  0.7116 1.3427 0.7056
v  0.7160 1.3427 0.7160
v  0.7116 1.3427 -0.7056
v  -0.7056 1.3427 0.7116
v  0.7056 1.3427 0.7116
v  -0.7116 1.2192 -0.7056
v  -0.7116 1.2192 -0.5917
v  -0.7116 1.2192 -0.6039
v  -0.7116 1.2192 0.5978
v  -0.7116 1.2192 0.7056
v  0.7056 1.2192 -0.7116
v  0.5917 1.2192 -0.7116
v  0.6039 1.2192 -0.7116
v  -0.5917 1.2192 -0.7116
v  -0.6039 1.2192 -0.7116
v  -0.7056 1.2192 -0.7116
v  0.7116 1.2192 0.7056
v  0.7116 1.2192 0.5978
v  0.7116 1.2192 -0.5917
v  0.7116 1.2192 -0.6039
v  0.7116 1.2192 -0.7056
v  -0.7056 1.2192 0.7116
v  -0.5917 1.2192 0.7116
v  -0.6039 1.2192 0.7116
v  0.5917 1.2192 0.7116
v  0.6039 1.2192 0.7116
v  0.7056 1.2192 0.7116
v  0.6615 1.2192 0.5978
v  0.6615 1.2192 -0.5978
v  0.7056 1.2192 -0.5978
v  -0.7056 1.2192 -0.5978
v  -0.6615 1.2192 0.5978
v  -0.6615 1.2192 -0.5978
v  0.5978 1.3098 0.6615
v  -0.5978 1.3098 0.6615
v  -0.5978 1.3098 -0.6615
v  0.5978 1.3098 -0.6615
v  0.6615 1.3098 -0.5978
v  0.6615 1.3098 0.5978
v  -0.6615 1.3098 0.5978
v  -0.6615 1.3098 -0.5978
v  0.5978 1.2192 0.6615
v  0.5978 1.2192 0.7056
v  -0.5978 1.2192 0.6615
v  -0.5978 1.2192 0.7056
v  -0.5978 1.2192 -0.6615
v  -0.5978 1.2192 -0.7056
v  0.5978 1.2192 -0.6615
v  0.5978 1.2192 -0.7056
v  -0.6167 0.0000 -0.6167
v  -0.6760 0.0000 -0.6167
v  -0.6821 0.0000 -0.6228
v  -0.6167 0.0000 -0.6821
v  -0.6821 0.0000 -0.6760
v  -0.6760 0.0000 -0.6821
v  -0.5978 1.2192 -0.7116
v  -0.6167 0.0000 0.6167
v  -0.6167 0.0000 0.6760
v  -0.6228 0.0000 0.6821
v  -0.6821 0.0000 0.6167
v  -0.6760 0.0000 0.6821
v  -0.6821 0.0000 0.6760
v  0.6167 0.0000 0.6167
v  0.6760 0.0000 0.6167
v  0.6821 0.0000 0.6228
v  0.6167 0.0000 0.6821
v  0.6821 0.0000 0.6760
v  0.6760 0.0000 0.6821
v  0.5978 1.2192 0.7116
v  0.7116 1.2192 0.6039
v  0.7056 1.2192 0.5978
v  0.6167 0.0000 -0.6167
v  0.6167 0.0000 -0.6760
v  0.6228 0.0000 -0.6821
v  0.6821 0.0000 -0.6167
v  0.6760 0.0000 -0.6821
v  0.6821 0.0000 -0.6760
v  0.7116 1.2192 -0.5978
# 113 vertices

vn 0.0000 -1.0000 -0.0000
vn 0.0000 1.0000 -0.0000
vn 0.0000 0.0000 1.0000
vn 1.0000 0.0000 -0.0000
vn 0.0000 0.0000 -1.0000
vn -1.0000 0.0000 -0.0000
vn -0.5774 0.5774 0.5774
vn 0.5774 0.5774 0.5774
vn -0.5774 0.5774 -0.5774
vn 0.5774 0.5774 -0.5774
vn 0.0000 0.7071 0.7071
vn 0.7071 0.7071 -0.0000
vn 0.0000 0.7071 -0.7071
vn -0.7071 0.7071 -0.0000
vn 0.7071 0.0000 0.7071
vn -0.7071 0.0000 0.7071
vn 0.7071 0.0000 -0.7071
vn -0.7071 0.0000 -0.7071
vn 0.0000 -0.0243 -0.9997
vn 0.9999 -0.0155 0.0000
vn -0.9997 -0.0243 -0.0000
vn 0.0196 -0.0138 0.9997
vn 0.9997 -0.0138 0.0196
vn -0.0000 -0.0155 0.9999
vn -0.7067 -0.0343 -0.7067
vn -0.7068 -0.0281 0.7068
vn 0.0000 -0.0155 -0.9999
vn 0.0000 -0.0243 0.9997
vn 0.9997 -0.0138 -0.0196
vn 0.0196 -0.0138 -0.9997
vn 0.9999 -0.0155 -0.0000
vn -0.7067 -0.0343 0.7067
vn 0.7068 -0.0281 0.7068
vn -0.9999 -0.0155 -0.0000
vn 0.9997 -0.0243 -0.0000
vn -0.0196 -0.0138 -0.9997
vn -0.9997 -0.0138 -0.0196
vn 0.7067 -0.0343 0.7067
vn 0.7068 -0.0281 -0.7068
vn 0.0000 -0.0155 0.9999
vn -0.9997 -0.0138 0.0196
vn -0.0196 -0.0138 0.9997
vn 0.7067 -0.0343 -0.7067
vn -0.7068 -0.0281 -0.7068
# 44 vertex normals

vt 0.9057 0.4112 0.0000
vt 0.5248 0.4112 0.0000
vt 0.5248 0.0303 0.0000
vt 0.9057 0.0303 0.0000
vt 0.0119 0.5065 0.0000
vt 0.4935 0.5065 0.0000
vt 0.4935 0.9881 0.0000
vt 0.0119 0.9881 0.0000
vt 0.5109 0.7143 0.0000
vt 0.9925 0.7143 0.0000
vt 0.9925 0.7285 0.0000
vt 0.5109 0.7285 0.0000
vt 0.5128 0.7837 0.0000
vt 0.9944 0.7837 0.0000
vt 0.9944 0.7979 0.0000
vt 0.5128 0.7979 0.0000
vt 0.5109 0.7364 0.0000
vt 0.9925 0.7364 0.0000
vt 0.9925 0.7507 0.0000
vt 0.5109 0.7507 0.0000
vt 0.5128 0.7601 0.0000
vt 0.9944 0.7601 0.0000
vt 0.9944 0.7743 0.0000
vt 0.5128 0.7743 0.0000
vt 0.0100 0.4935 0.0000
vt 0.0100 0.0119 0.0000
vt 0.0114 0.0114 0.0000
vt 0.0260 0.0280 0.0000
vt 0.0247 0.0247 0.0000
vt 0.0260 0.4775 0.0000
vt 0.0247 0.4808 0.0000
vt 0.0114 0.4941 0.0000
vt 0.0119 0.0100 0.0000
vt 0.4935 0.0100 0.0000
vt 0.4941 0.0114 0.0000
vt 0.4775 0.0260 0.0000
vt 0.4808 0.0247 0.0000
vt 0.0280 0.0260 0.0000
vt 0.4955 0.0119 0.0000
vt 0.4955 0.4935 0.0000
vt 0.4941 0.4941 0.0000
vt 0.4794 0.4775 0.0000
vt 0.4808 0.4808 0.0000
vt 0.4794 0.0280 0.0000
vt 0.4935 0.4955 0.0000
vt 0.0119 0.4955 0.0000
vt 0.0280 0.4794 0.0000
vt 0.4775 0.4794 0.0000
vt 0.9623 0.9441 0.0000
vt 0.5128 0.9441 0.0000
vt 0.5128 0.9047 0.0000
vt 0.5491 0.9047 0.0000
vt 0.5452 0.9047 0.0000
vt 0.9280 0.9047 0.0000
vt 0.9623 0.9047 0.0000
vt 0.9604 0.8968 0.0000
vt 0.5109 0.8968 0.0000
vt 0.5109 0.8575 0.0000
vt 0.5471 0.8575 0.0000
vt 0.5433 0.8575 0.0000
vt 0.9241 0.8575 0.0000
vt 0.9280 0.8575 0.0000
vt 0.9604 0.8575 0.0000
vt 0.9623 0.9913 0.0000
vt 0.5128 0.9913 0.0000
vt 0.5128 0.9520 0.0000
vt 0.5471 0.9520 0.0000
vt 0.9261 0.9520 0.0000
vt 0.9300 0.9520 0.0000
vt 0.9623 0.9520 0.0000
vt 0.9604 0.8481 0.0000
vt 0.5109 0.8481 0.0000
vt 0.5109 0.8087 0.0000
vt 0.5471 0.8087 0.0000
vt 0.5433 0.8087 0.0000
vt 0.9241 0.8087 0.0000
vt 0.9280 0.8087 0.0000
vt 0.9604 0.8087 0.0000
vt 0.5109 0.6825 0.0000
vt 0.5109 0.6665 0.0000
vt 0.8917 0.6665 0.0000
vt 0.8898 0.6825 0.0000
vt 0.8917 0.6805 0.0000
vt 0.5109 0.6423 0.0000
vt 0.8898 0.6423 0.0000
vt 0.8917 0.6442 0.0000
vt 0.5109 0.6582 0.0000
vt 0.8917 0.6582 0.0000
vt 0.9057 0.4315 0.0000
vt 0.5248 0.4315 0.0000
vt 0.5248 0.0100 0.0000
vt 0.9057 0.0100 0.0000
vt 0.9260 0.0303 0.0000
vt 0.9260 0.4112 0.0000
vt 0.5045 0.4112 0.0000
vt 0.5045 0.0303 0.0000
vt 0.9510 0.3928 0.0000
vt 0.9370 0.3928 0.0000
vt 0.9350 0.3909 0.0000
vt 0.9510 0.0119 0.0000
vt 0.9350 0.0139 0.0000
vt 0.9370 0.0119 0.0000
vt 0.5128 0.7063 0.0000
vt 0.5128 0.6923 0.0000
vt 0.5148 0.6904 0.0000
vt 0.8937 0.7063 0.0000
vt 0.8917 0.6904 0.0000
vt 0.8937 0.6923 0.0000
vt 0.8939 0.5978 0.0000
vt 0.5130 0.5978 0.0000
vt 0.5130 0.5690 0.0000
vt 0.8939 0.5690 0.0000
vt 0.8939 0.5600 0.0000
vt 0.5130 0.5600 0.0000
vt 0.5130 0.5311 0.0000
vt 0.8939 0.5311 0.0000
vt 0.8939 0.5221 0.0000
vt 0.5130 0.5221 0.0000
vt 0.5130 0.4932 0.0000
vt 0.8939 0.4932 0.0000
vt 0.8939 0.6357 0.0000
vt 0.5130 0.6357 0.0000
vt 0.5130 0.6069 0.0000
vt 0.8939 0.6069 0.0000
vt 0.5069 0.4260 0.0000
vt 0.5045 0.4247 0.0000
vt 0.5069 0.4233 0.0000
vt 0.9202 0.4260 0.0000
vt 0.9178 0.4247 0.0000
vt 0.9202 0.4233 0.0000
vt 0.5069 0.0127 0.0000
vt 0.5045 0.0114 0.0000
vt 0.5069 0.0100 0.0000
vt 0.9202 0.0127 0.0000
vt 0.9178 0.0114 0.0000
vt 0.9202 0.0100 0.0000
vt 0.0119 0.5045 0.0000
vt 0.4935 0.5045 0.0000
vt 0.4955 0.5065 0.0000
vt 0.4955 0.9881 0.0000
vt 0.4935 0.9900 0.0000
vt 0.0119 0.9900 0.0000
vt 0.0100 0.9881 0.0000
vt 0.0100 0.5065 0.0000
vt 0.5109 0.7837 0.0000
vt 0.5109 0.7979 0.0000
vt 0.9964 0.7743 0.0000
vt 0.9964 0.7601 0.0000
vt 0.9964 0.7837 0.0000
vt 0.9964 0.7979 0.0000
vt 0.5109 0.7601 0.0000
vt 0.5109 0.7743 0.0000
vt 0.9643 0.9441 0.0000
vt 0.9643 0.9047 0.0000
vt 0.5109 0.9441 0.0000
vt 0.5109 0.9047 0.0000
vt 0.9643 0.9913 0.0000
vt 0.9643 0.9520 0.0000
vt 0.5109 0.9913 0.0000
vt 0.5109 0.9520 0.0000
vt 0.5109 0.6904 0.0000
vt 0.8956 0.6904 0.0000
vt 0.9350 0.3947 0.0000
vt 0.9350 0.0100 0.0000
vt 0.8937 0.6423 0.0000
vt 0.8937 0.6825 0.0000
vt 0.2569 0.0446 0.0000
vt 0.2569 0.0959 0.0000
vt 0.2516 0.1012 0.0000
vt 0.2003 0.0446 0.0000
vt 0.2055 0.1012 0.0000
vt 0.2003 0.0959 0.0000
vt 0.4487 0.4340 0.0000
vt 0.4487 0.4701 0.0000
vt 0.0401 0.4637 0.0000
vt 0.0401 0.4439 0.0000
vt 0.4392 0.3212 0.0000
vt 0.4411 0.3379 0.0000
vt 0.0372 0.4005 0.0000
vt 0.0347 0.3788 0.0000
vt 0.4469 0.3971 0.0000
vt 0.4486 0.4311 0.0000
vt 0.0401 0.4410 0.0000
vt 0.0392 0.4232 0.0000
vt 0.4454 0.3795 0.0000
vt 0.4738 0.3555 0.0000
vt 0.4757 0.3768 0.0000
vt 0.4713 0.3343 0.0000
vt 0.4467 0.3942 0.0000
vt 0.0390 0.4203 0.0000
# 190 texture coords

g Box001
usemtl 01___Default
s 2
f 1/1/1 2/2/1 3/3/1 4/4/1 
s 4
f 5/5/2 6/6/2 7/7/2 8/8/2 
s 8
f 9/9/3 10/10/3 11/11/3 12/12/3 
s 16
f 13/13/4 14/14/4 15/15/4 16/16/4 
s 32
f 17/17/5 18/18/5 19/19/5 20/20/5 
s 64
f 21/21/6 22/22/6 23/23/6 24/24/6 
s off
f 22/25/1 21/26/1 25/27/1 26/28/1 
f 25/27/1 27/29/1 26/28/1 
f 26/28/1 28/30/1 29/31/1 22/25/1 
f 30/32/1 22/25/1 29/31/1 
f 18/33/1 17/34/1 31/35/1 32/36/1 
f 31/35/1 33/37/1 32/36/1 
f 32/36/1 34/38/1 27/29/1 18/33/1 
f 25/27/1 18/33/1 27/29/1 
f 14/39/1 13/40/1 35/41/1 36/42/1 
f 35/41/1 37/43/1 36/42/1 
f 36/42/1 38/44/1 33/37/1 14/39/1 
f 31/35/1 14/39/1 33/37/1 
f 10/45/1 9/46/1 30/32/1 39/47/1 
f 30/32/1 29/31/1 39/47/1 
f 39/47/1 40/48/1 37/43/1 10/45/1 
f 35/41/1 10/45/1 37/43/1 
f 28/49/6 26/50/6 41/51/6 42/52/6 
f 41/51/4 43/53/4 42/52/4 
f 28/49/6 42/52/6 44/54/6 45/55/6 
f 34/56/5 32/57/5 46/58/5 47/59/5 
f 46/58/4 48/60/4 47/59/4 
f 47/59/5 49/61/5 50/62/5 34/56/5 
f 34/56/5 50/62/5 51/63/5 
f 38/64/4 36/65/4 52/66/4 53/67/4 
f 53/67/4 54/68/4 55/69/4 38/64/4 
f 38/64/4 55/69/4 56/70/4 
f 40/71/3 39/72/3 57/73/3 58/74/3 
f 57/73/4 59/75/4 58/74/4 
f 58/74/3 60/76/3 61/77/3 40/71/3 
f 40/71/3 61/77/3 62/78/3 
s 2
f 53/79/1 63/80/1 64/81/1 54/82/1 
f 65/83/1 54/82/1 64/81/1 
f 44/84/1 42/85/1 66/86/1 67/87/1 
f 66/86/1 68/88/1 67/87/1 
f 69/89/1 70/90/1 2/2/1 1/1/1 
f 71/91/1 72/92/1 4/4/1 3/3/1 
f 1/1/1 4/4/1 73/93/1 74/94/1 
f 3/3/1 2/2/1 75/95/1 76/96/1 
f 77/97/1 78/98/1 60/99/1 79/100/1 
f 60/99/1 58/101/1 80/102/1 79/100/1 
f 81/103/1 82/104/1 49/105/1 83/106/1 
f 49/105/1 47/107/1 84/108/1 83/106/1 
s off
f 77/109/5 79/110/5 70/111/5 69/112/5 
f 67/113/4 68/114/4 76/115/4 75/116/4 
f 81/117/3 83/118/3 72/119/3 71/120/3 
f 64/121/6 63/122/6 74/123/6 73/124/6 
f 9/46/1 22/25/1 30/32/1 
f 10/45/1 35/41/1 13/40/1 
f 21/26/1 18/33/1 25/27/1 
f 14/39/1 31/35/1 17/34/1 
f 12/125/7 5/126/7 23/127/7 
f 16/128/8 6/129/8 11/130/8 
f 24/131/9 8/132/9 19/133/9 
f 20/134/10 7/135/10 15/136/10 
f 5/5/11 12/137/11 11/138/11 6/6/11 
f 6/6/12 16/139/12 15/140/12 7/7/12 
f 7/7/13 20/141/13 19/142/13 8/8/13 
f 8/8/14 24/143/14 23/144/14 5/5/14 
f 10/145/15 13/13/15 16/16/15 11/146/15 
f 12/147/16 23/23/16 22/22/16 9/148/16 
f 14/14/17 17/149/17 20/150/17 15/15/17 
f 18/151/18 21/21/18 24/24/18 19/152/18 
f 28/30/1 39/47/1 29/31/1 
f 26/28/1 27/29/1 34/38/1 
f 32/36/1 33/37/1 38/44/1 
f 40/48/1 36/42/1 37/43/1 
f 39/153/16 28/49/16 45/55/16 57/154/16 
f 26/50/18 34/155/18 51/156/18 41/51/18 
f 32/157/17 38/64/17 56/70/17 46/158/17 
f 36/65/15 40/159/15 62/160/15 52/66/15 
f 50/161/1 49/105/1 82/104/1 
f 47/107/1 48/162/1 84/108/1 
f 61/163/1 60/99/1 78/98/1 
f 58/101/1 59/164/1 80/102/1 
f 42/85/1 43/165/1 66/86/1 
f 55/166/1 54/82/1 65/83/1 
s 2
f 85/167/1 86/168/1 87/169/1 88/170/1 
f 87/169/1 89/171/1 90/172/1 88/170/1 
s off
f 51/173/19 91/174/19 88/175/19 90/176/19 
f 91/177/20 81/178/20 85/179/20 88/180/20 
f 43/181/21 41/182/21 89/183/21 87/184/21 
f 68/185/22 85/179/22 3/186/22 76/187/22 
f 81/178/23 71/188/23 3/186/23 85/179/23 
f 66/189/24 86/190/24 85/179/24 68/185/24 
f 41/182/25 51/173/25 90/176/25 89/183/25 
f 66/189/26 43/181/26 87/184/26 86/190/26 
s 2
f 92/167/1 93/168/1 94/169/1 95/170/1 
f 94/169/1 96/171/1 97/172/1 95/170/1 
s off
f 45/173/21 44/174/21 95/175/21 97/176/21 
f 44/177/27 67/178/27 92/179/27 95/180/27 
f 59/181/28 57/182/28 96/183/28 94/184/28 
f 79/185/29 92/179/29 2/186/29 70/187/29 
f 67/178/30 75/188/30 2/186/30 92/179/30 
f 80/189/31 93/190/31 92/179/31 79/185/31 
f 57/182/32 45/173/32 97/176/32 96/183/32 
f 80/189/33 59/181/33 94/184/33 93/190/33 
s 2
f 98/167/1 99/168/1 100/169/1 101/170/1 
f 100/169/1 102/171/1 103/172/1 101/170/1 
s off
f 62/173/28 104/174/28 101/175/28 103/176/28 
f 104/177/34 77/178/34 98/179/34 101/180/34 
f 105/181/35 52/182/35 102/183/35 100/184/35 
f 63/185/36 98/179/36 1/186/36 74/187/36 
f 77/178/37 69/188/37 1/186/37 98/179/37 
f 106/189/27 99/190/27 98/179/27 63/185/27 
f 52/182/38 62/173/38 103/176/38 102/183/38 
f 106/189/39 105/181/39 100/184/39 99/190/39 
s 2
f 107/167/1 108/168/1 109/169/1 110/170/1 
f 109/169/1 111/171/1 112/172/1 110/170/1 
s off
f 56/173/35 113/174/35 110/175/35 112/176/35 
f 113/177/40 64/178/40 107/179/40 110/180/40 
f 48/181/19 46/182/19 111/183/19 109/184/19 
f 83/185/41 107/179/41 4/186/41 72/187/41 
f 64/178/42 73/188/42 4/186/42 107/179/42 
f 84/189/34 108/190/34 107/179/34 83/185/34 
f 46/182/43 56/173/43 112/176/43 111/183/43 
f 84/189/44 48/181/44 109/184/44 108/190/44 
# 88 polygons - 34 triangles

